<svg width="216" height="238" viewBox="0 0 216 238" fill="none" xmlns="http://www.w3.org/2000/svg">
<path d="M3.14551 177.333L108 119L212.854 177.333L108 235.667L3.14551 177.333Z" fill="black" fill-opacity="0.1"/>
<path fill-rule="evenodd" clip-rule="evenodd" d="M127.338 96.4357C121.226 93.7548 114.644 92.3545 107.996 92.3545C94.0249 92.3545 80.883 98.4577 70.9922 109.539C61.1443 120.572 55.673 135.228 55.5849 150.806L55.5732 152.898L57.207 153.932C65.0807 158.917 73.9849 161.539 83.008 161.539C83.2561 161.539 83.5061 161.537 83.7548 161.532C91.6201 161.406 99.4014 159.303 106.456 155.419C104.231 154.034 102.1 152.476 100.073 150.756C87.7776 156.146 73.8421 155.482 62.0488 148.732C63.1959 121.394 83.4246 99.4958 107.996 99.4958C114.831 99.4958 121.581 101.178 127.677 104.374C127.756 101.728 127.644 99.0751 127.338 96.4357Z" fill="#6DDFF6"/>
<path fill-rule="evenodd" clip-rule="evenodd" d="M160.408 150.321C160.221 130.953 151.744 113.282 137.614 102.518C137.625 105.352 137.455 108.184 137.105 111C147.146 120.122 153.266 133.552 153.936 148.267C132.278 160.684 105.269 151.989 92.9657 128.261C89.6426 121.852 87.6052 114.686 87.0064 107.364C84.9161 108.632 82.9198 110.091 81.0352 111.727C82.029 118.774 84.1885 125.617 87.4114 131.831C94.41 145.329 105.662 155.006 119.093 159.079C123.65 160.46 128.282 161.144 132.891 161.144C141.867 161.144 150.749 158.549 158.785 153.464L160.427 152.423L160.408 150.321Z" fill="#6DDFF6"/>
<path fill-rule="evenodd" clip-rule="evenodd" d="M109.848 52.0016L108.228 50.9443L106.608 51.9999C98.6033 57.2124 91.9528 64.6857 87.3753 73.6113C83.4225 81.3196 81.0844 89.9543 80.5361 98.7682C82.7275 97.3189 85.0104 96.0445 87.3709 94.9554C89.4043 80.426 96.9982 67.2945 108.225 59.27C128.846 74.0225 135.628 104.61 123.242 128.498C119.887 134.967 115.301 140.56 109.867 144.854C111.896 146.232 114.028 147.427 116.243 148.427C121.265 143.895 125.542 138.344 128.796 132.068C143.257 104.178 134.758 68.2608 109.848 52.0016Z" fill="#6DDFF6"/>
<path fill-rule="evenodd" clip-rule="evenodd" d="M108.196 112.943C105.242 112.943 102.839 115.619 102.839 118.909C102.839 122.198 105.242 124.874 108.196 124.874C111.151 124.874 113.554 122.198 113.554 118.909C113.554 115.619 111.151 112.943 108.196 112.943ZM108.196 132.015C101.706 132.015 96.4258 126.135 96.4258 118.909C96.4258 111.681 101.706 105.802 108.196 105.802C114.688 105.802 119.968 111.681 119.968 118.909C119.968 126.135 114.688 132.015 108.196 132.015Z" fill="#6DDFF6"/>
<mask id="mask0_1689_704" style="mask-type:alpha" maskUnits="userSpaceOnUse" x="1" y="1" width="214" height="237">
<path d="M108 118.999L212.854 60.666V177.333L108 235.666V118.999Z" stroke="black" stroke-width="2"/>
<path d="M3.14551 60.666L108 118.999V235.666L3.14551 177.333V60.666Z" stroke="black" stroke-width="2"/>
<path d="M3.14551 60.6663L108 2.33301L212.854 60.6663L108 119L3.14551 60.6663Z" stroke="black" stroke-width="2"/>
</mask>
<g mask="url(#mask0_1689_704)">
<path fill-rule="evenodd" clip-rule="evenodd" d="M230.331 -17.1113H-14.3301V255.111H230.331V-17.1113ZM108 206.5C151.432 206.5 186.641 167.324 186.641 119C186.641 70.6749 151.432 31.4998 108 31.4998C64.5679 31.4998 29.3592 70.6749 29.3592 119C29.3592 167.324 64.5679 206.5 108 206.5Z" fill="#6DDFF6"/>
</g>
</svg>
