<svg width="216" height="229" viewBox="0 0 216 229" fill="none" xmlns="http://www.w3.org/2000/svg">
<path d="M3.14551 170.627L108 114.5L212.854 170.627L108 226.755L3.14551 170.627Z" fill="black" fill-opacity="0.1"/>
<mask id="mask0_1689_721" style="mask-type:alpha" maskUnits="userSpaceOnUse" x="1" y="1" width="214" height="228">
<path d="M108 114.5L212.854 58.373V170.628L108 226.755V114.5Z" stroke="#0D5ACE" stroke-width="2"/>
<path d="M3.14551 58.373L108 114.5V226.755L3.14551 170.628V58.373Z" stroke="#0D5ACE" stroke-width="2"/>
<path d="M3.14551 58.3726L108 2.24512L212.854 58.3726L108 114.5L3.14551 58.3726Z" stroke="#0D5ACE" stroke-width="2"/>
</mask>
<g mask="url(#mask0_1689_721)">
<path fill-rule="evenodd" clip-rule="evenodd" d="M230.331 -16.4639H-14.3301V245.465H230.331V-16.4639ZM108 198.691C151.432 198.691 186.641 160.997 186.641 114.5C186.641 68.0027 151.432 30.3091 108 30.3091C64.5679 30.3091 29.3592 68.0027 29.3592 114.5C29.3592 160.997 64.5679 198.691 108 198.691Z" fill="#6DDFF6"/>
</g>
<path d="M108 61.9277L67.1064 141.442H149.242L108 61.9277Z" stroke="#6DDFF6" stroke-width="3"/>
<path fill-rule="evenodd" clip-rule="evenodd" d="M149.479 135.216C146.525 135.216 144.122 137.791 144.122 140.955C144.122 144.121 146.525 146.695 149.479 146.695C152.434 146.695 154.837 144.121 154.837 140.955C154.837 137.791 152.434 135.216 149.479 135.216ZM149.479 153.567C142.988 153.567 137.708 147.91 137.708 140.955C137.708 134.002 142.988 128.345 149.479 128.345C155.971 128.345 161.251 134.002 161.251 140.955C161.251 147.91 155.971 153.567 149.479 153.567Z" fill="#6DDFF6"/>
<path fill-rule="evenodd" clip-rule="evenodd" d="M107.887 55.8887C104.933 55.8887 102.53 58.4636 102.53 61.6284C102.53 64.7932 104.933 67.368 107.887 67.368C110.841 67.368 113.245 64.7932 113.245 61.6284C113.245 58.4636 110.841 55.8887 107.887 55.8887ZM107.888 74.2392C101.396 74.2392 96.1162 68.5824 96.1162 61.6284C96.1162 54.6747 101.396 49.0176 107.888 49.0176C114.378 49.0176 119.659 54.6747 119.659 61.6284C119.659 68.5824 114.378 74.2392 107.888 74.2392Z" fill="#6DDFF6"/>
<path fill-rule="evenodd" clip-rule="evenodd" d="M66.645 135.216C63.6906 135.216 61.2876 137.791 61.2876 140.955C61.2876 144.121 63.6906 146.695 66.645 146.695C69.5992 146.695 72.0028 144.121 72.0028 140.955C72.0028 137.791 69.5992 135.216 66.645 135.216ZM66.6449 153.567C60.1541 153.567 54.874 147.91 54.874 140.955C54.874 134.002 60.1541 128.345 66.6449 128.345C73.1356 128.345 78.4162 134.002 78.4162 140.955C78.4162 147.91 73.1356 153.567 66.6449 153.567Z" fill="#6DDFF6"/>
</svg>
