<svg width="216" height="230" viewBox="0 0 216 230" fill="none" xmlns="http://www.w3.org/2000/svg">
<path d="M3.14551 171.373L108 115L212.854 171.373L108 227.745L3.14551 171.373Z" fill="black" fill-opacity="0.1"/>
<mask id="mask0_1689_741" style="mask-type:alpha" maskUnits="userSpaceOnUse" x="1" y="1" width="214" height="229">
<path d="M108 115L212.854 58.627V171.372L108 227.745V115Z" stroke="#0D5ACE" stroke-width="2"/>
<path d="M3.14551 58.627L108 115V227.745L3.14551 171.372V58.627Z" stroke="#0D5ACE" stroke-width="2"/>
<path d="M3.14551 58.6274L108 2.25488L212.854 58.6274L108 115L3.14551 58.6274Z" stroke="#0D5ACE" stroke-width="2"/>
</mask>
<g mask="url(#mask0_1689_741)">
<path fill-rule="evenodd" clip-rule="evenodd" d="M230.331 -16.5361H-14.3301V246.536H230.331V-16.5361ZM108 199.559C151.432 199.559 186.641 161.7 186.641 115C186.641 68.2994 151.432 30.441 108 30.441C64.5679 30.441 29.3592 68.2994 29.3592 115C29.3592 161.7 64.5679 199.559 108 199.559Z" fill="#6DDFF6"/>
</g>
<path d="M93.334 105.302L108.349 95.9805L123.365 105.302V123.946L108.349 133.268L93.334 123.946V105.302Z" stroke="#6DDFF6" stroke-width="3"/>
<path d="M113.256 142.508L128.271 133.187L143.287 142.508V161.152L128.271 170.474L113.256 161.152V142.508Z" stroke="#6DDFF6" stroke-width="3"/>
<path d="M133.179 105.302L148.194 95.9805L163.21 105.302V123.946L148.194 133.268L133.179 123.946V105.302Z" stroke="#6DDFF6" stroke-width="3"/>
<path d="M53.4893 105.302L68.5049 95.9805L83.5206 105.302V123.946L68.5049 133.268L53.4893 123.946V105.302Z" stroke="#6DDFF6" stroke-width="3"/>
<path d="M73.4111 142.508L88.4268 133.187L103.442 142.508V161.152L88.4268 170.474L73.4111 161.152V142.508Z" stroke="#6DDFF6" stroke-width="3"/>
<path d="M113.256 68.8481L128.271 59.5264L143.287 68.8481V87.4915L128.271 96.8132L113.256 87.4915V68.8481Z" stroke="#6DDFF6" stroke-width="3"/>
<path d="M73.4111 68.8481L88.4268 59.5264L103.442 68.8481V87.4915L88.4268 96.8132L73.4111 87.4915V68.8481Z" stroke="#6DDFF6" stroke-width="3"/>
</svg>
