<svg width="91" height="38" viewBox="0 0 91 38" fill="none" xmlns="http://www.w3.org/2000/svg">
<path d="M43.1684 16.6994H43.7982C43.9241 16.6994 44.05 16.8322 44.05 16.965V24.4014C44.05 24.5342 43.9241 24.667 43.7982 24.667H43.1684C43.0425 24.667 42.9165 24.5342 42.9165 24.4014V18.6913V18.9569V19.0897L41.1533 23.4719C41.1533 23.6047 41.0273 23.6047 40.9014 23.6047H40.3976C40.2716 23.6047 40.2716 23.6047 40.1457 23.4719L38.3824 19.2225V19.0897V18.6913V24.4014C38.3824 24.5342 38.2565 24.667 38.1305 24.667H37.5008C37.3749 24.667 37.2489 24.5342 37.2489 24.4014V16.8322C37.2489 16.6994 37.3749 16.5667 37.5008 16.5667H38.1305C38.2565 16.5667 38.2565 16.5667 38.3824 16.6994L40.3976 21.3472C40.5235 21.48 40.7754 21.48 40.7754 21.3472L42.7906 16.6994C42.9165 16.6994 43.0425 16.6994 43.1684 16.6994Z" fill="white"/>
<path d="M45.4354 18.957H46.0652C46.1911 18.957 46.1911 18.957 46.3171 19.0898L47.9544 23.8704V24.0032L47.5765 24.6671C47.4506 24.7999 47.1987 24.7999 47.1987 24.6671L45.3095 19.2226C45.1835 19.0898 45.3095 18.957 45.4354 18.957ZM49.7176 18.957C49.8436 18.957 49.9695 19.0898 49.9695 19.2226L47.7025 25.9951C47.5765 26.2606 47.4506 26.5262 47.3246 26.659C47.1987 26.7918 47.0728 26.9246 46.8209 26.9246C46.569 26.9246 46.443 27.0574 46.0652 27.0574C45.9392 27.0574 45.8133 26.9246 45.8133 26.7918V26.1278C45.8133 25.9951 45.9392 25.8623 46.0652 25.8623C46.3171 25.8623 46.443 25.8623 46.569 25.7295C46.6949 25.5967 46.8209 25.4639 46.8209 25.3311L48.7101 19.0898C48.7101 18.957 48.836 18.957 48.962 18.957H49.7176V18.957Z" fill="white"/>
<path d="M51.2277 16.6994H51.8575C51.9834 16.6994 52.1094 16.8322 52.1094 16.965V24.4014C52.1094 24.5342 51.9834 24.667 51.8575 24.667H51.2277C51.1018 24.667 50.9758 24.5342 50.9758 24.4014V16.8322C50.9758 16.8322 51.1018 16.6994 51.2277 16.6994ZM51.7315 23.8703C51.7315 23.7375 51.8575 23.6047 51.9834 23.6047H53.4948C53.9986 23.6047 54.5024 23.4719 54.7542 23.2063C55.0061 22.9407 55.258 22.4095 55.258 21.8784V19.4881C55.258 18.9569 55.1321 18.5585 54.7542 18.1602C54.5024 17.8946 53.9986 17.7618 53.4948 17.7618H51.9834C51.8575 17.7618 51.7315 17.629 51.7315 17.4962V16.8322C51.7315 16.6994 51.8575 16.5667 51.9834 16.5667H53.4948C54.1245 16.5667 54.6283 16.6994 55.0061 16.965C55.384 17.2306 55.7618 17.4962 56.0137 17.8946C56.2656 18.293 56.3916 18.8241 56.3916 19.4881V21.7456C56.3916 22.4095 56.2656 22.8079 56.0137 23.3391C55.7618 23.7375 55.5099 24.1358 55.0061 24.2686C54.6283 24.5342 53.9986 24.667 53.4948 24.667H51.9834C51.8575 24.667 51.7315 24.5342 51.7315 24.4014V23.8703Z" fill="white"/>
<path d="M57.865 24.2687C57.4872 24.0032 57.3612 23.472 57.3612 22.9408C57.3612 22.4096 57.4872 22.0113 57.865 21.6129C58.1169 21.3473 58.6207 21.2145 59.2504 21.2145H60.6358C60.7618 21.2145 60.8877 21.3473 60.8877 21.4801V21.8785C60.8877 22.0113 60.7618 22.1441 60.6358 22.1441H59.2504C58.9985 22.1441 58.7466 22.1441 58.6207 22.2769C58.4947 22.4096 58.3688 22.5424 58.3688 22.808C58.3688 23.0736 58.4947 23.3392 58.6207 23.472C58.7466 23.6048 59.1245 23.7376 59.5023 23.7376C59.8802 23.7376 60.258 23.7376 60.3839 23.6048C60.5099 23.472 60.6358 23.6048 60.7618 23.7376V23.8704V24.0032C60.6358 24.136 60.6358 24.2687 60.5099 24.2687C60.3839 24.4015 60.258 24.4015 60.0061 24.5343C59.8802 24.5343 59.6283 24.6671 59.3764 24.6671C58.6207 24.7999 58.1169 24.6671 57.865 24.2687ZM60.6358 21.0817C60.6358 20.6833 60.5099 20.4178 60.3839 20.1522C60.132 19.8866 59.8802 19.8866 59.6283 19.8866C59.3764 19.8866 59.2504 19.8866 58.9985 20.0194C58.8726 20.0194 58.7466 20.1522 58.6207 20.285C58.4947 20.285 58.4947 20.285 58.3688 20.285L57.865 20.0194C57.739 19.8866 57.739 19.7538 57.865 19.621C57.9909 19.4882 58.2428 19.3554 58.4947 19.2226C58.8726 19.0898 59.2504 18.957 59.6283 18.957C60.132 18.957 60.5099 19.0898 60.7618 19.2226C61.1396 19.3554 61.2656 19.621 61.5175 19.8866C61.6434 20.1522 61.7694 20.5505 61.7694 21.0817V24.4015C61.7694 24.5343 61.6434 24.6671 61.5175 24.6671H60.8877C60.7618 24.6671 60.6358 24.5343 60.6358 24.4015V21.0817Z" fill="white"/>
<path d="M62.739 18.9572H64.7542C64.8801 18.9572 65.0061 19.09 65.0061 19.2228V19.754C65.0061 19.8868 64.8801 20.0196 64.7542 20.0196H62.739C62.6131 20.0196 62.4871 19.8868 62.4871 19.754V19.2228C62.6131 19.09 62.6131 18.9572 62.739 18.9572ZM63.3687 24.269C63.1169 24.0034 63.1169 23.605 63.1169 23.0738V17.3637C63.1169 17.2309 63.2428 17.0981 63.3687 17.0981H63.9985C64.1244 17.0981 64.2504 17.2309 64.2504 17.3637V23.0738C64.2504 23.2066 64.2504 23.3394 64.3763 23.3394C64.3763 23.4722 64.5023 23.4722 64.6282 23.4722H64.8801C65.0061 23.4722 65.132 23.605 65.132 23.7378V24.4018C65.132 24.5345 65.0061 24.6673 64.8801 24.6673H64.3763C63.9985 24.6673 63.6206 24.5345 63.3687 24.269Z" fill="white"/>
<path d="M66.6434 24.2687C66.2655 24.0032 66.1396 23.472 66.1396 22.9408C66.1396 22.4096 66.2655 22.0113 66.6434 21.6129C66.8953 21.3473 67.3991 21.2145 68.0288 21.2145H69.4142C69.5402 21.2145 69.6661 21.3473 69.6661 21.4801V21.8785C69.6661 22.0113 69.5402 22.1441 69.4142 22.1441H68.0288C67.7769 22.1441 67.525 22.1441 67.3991 22.2769C67.2731 22.4096 67.1472 22.5424 67.1472 22.808C67.1472 23.0736 67.2731 23.3392 67.3991 23.472C67.525 23.6048 67.9028 23.7376 68.2807 23.7376C68.6585 23.7376 69.0364 23.7376 69.1623 23.6048C69.2883 23.472 69.4142 23.6048 69.5402 23.7376V23.8704V24.0032C69.4142 24.136 69.4142 24.2687 69.2883 24.2687C69.1623 24.4015 69.0364 24.4015 68.7845 24.5343C68.6585 24.5343 68.4066 24.6671 68.1547 24.6671C67.525 24.7999 67.0212 24.6671 66.6434 24.2687ZM69.5402 21.0817C69.5402 20.6833 69.4142 20.4178 69.2883 20.1522C69.0364 19.8866 68.7845 19.8866 68.5326 19.8866C68.2807 19.8866 68.1547 19.8866 67.9028 20.0194C67.7769 20.0194 67.651 20.1522 67.525 20.285C67.3991 20.285 67.3991 20.285 67.2731 20.285L66.7693 20.0194C66.6434 19.8866 66.6434 19.7538 66.7693 19.621C66.8953 19.4882 67.1472 19.3554 67.3991 19.2226C67.7769 19.0898 68.1547 18.957 68.5326 18.957C69.0364 18.957 69.4142 19.0898 69.6661 19.2226C70.0439 19.3554 70.1699 19.621 70.4218 19.8866C70.5477 20.1522 70.6737 20.5505 70.6737 21.0817V24.4015C70.6737 24.5343 70.5477 24.6671 70.4218 24.6671H69.7921C69.6661 24.6671 69.5402 24.5343 69.5402 24.4015V21.0817Z" fill="white"/>
<path d="M72.7376 24.4017C72.3598 24.1361 71.9819 23.8705 71.856 23.3393C71.6041 22.9409 71.4781 22.4098 71.4781 21.7458V19.4883C71.4781 18.9571 71.6041 18.426 71.856 17.8948C72.1079 17.4964 72.3598 17.098 72.7376 16.8325C73.1155 16.5669 73.6192 16.4341 74.123 16.4341C74.5009 16.4341 75.0047 16.5669 75.3825 16.6997C75.7604 16.8325 76.0122 17.2308 76.2641 17.4964C76.516 17.762 76.642 18.1604 76.642 18.426C76.642 18.5588 76.516 18.6916 76.3901 18.6916H75.7604C75.6344 18.6916 75.6344 18.6916 75.5085 18.5588C75.3825 18.426 75.3825 18.1604 75.2566 18.0276C75.1306 17.8948 74.8787 17.6292 74.7528 17.6292C74.5009 17.4964 74.3749 17.4964 74.123 17.4964C73.8711 17.4964 73.4933 17.6292 73.3674 17.762C73.1155 17.8948 72.9895 18.1604 72.8636 18.426C72.7376 18.6916 72.6117 19.0899 72.6117 19.3555V21.7458C72.6117 22.1442 72.7376 22.4098 72.8636 22.6753C72.9895 22.9409 73.1155 23.2065 73.3674 23.3393C73.6193 23.4721 73.8711 23.6049 74.123 23.6049C74.3749 23.6049 74.6268 23.6049 74.7528 23.4721C75.0047 23.3393 75.1306 23.2065 75.2566 23.0737C75.3825 22.9409 75.5085 22.6753 75.5085 22.5426C75.5085 22.4098 75.6344 22.4098 75.7604 22.4098H76.3901C76.516 22.4098 76.642 22.5426 76.642 22.6753C76.516 23.0737 76.3901 23.3393 76.2641 23.6049C76.0122 24.0033 75.7604 24.2689 75.3825 24.4017C75.0047 24.5344 74.6268 24.6672 74.249 24.6672C73.6192 24.8 73.1155 24.6672 72.7376 24.4017Z" fill="white"/>
<path d="M79.035 24.4015C78.6571 24.2687 78.4053 23.8704 78.2793 23.6048C78.1534 23.2064 78.0274 22.808 78.0274 22.2769V21.3473C78.0274 20.8161 78.1534 20.4178 78.2793 20.0194C78.4053 19.621 78.6571 19.3554 79.035 19.2226C79.4128 19.0898 79.7907 18.957 80.2945 18.957C80.7982 18.957 81.1761 19.0898 81.5539 19.2226C81.9318 19.3554 82.1837 19.7538 82.3096 20.0194C82.4356 20.4178 82.5615 20.8161 82.5615 21.3473V22.2769C82.5615 22.808 82.4356 23.2064 82.3096 23.6048C82.1837 24.0032 81.9318 24.2687 81.5539 24.4015C81.1761 24.5343 80.7982 24.6671 80.2945 24.6671C79.7907 24.6671 79.2869 24.6671 79.035 24.4015ZM81.0501 23.3392C81.302 23.0736 81.302 22.808 81.302 22.2769V21.3473C81.302 20.9489 81.1761 20.5505 81.0501 20.285C80.7982 20.0194 80.5464 19.8866 80.1685 19.8866C79.7907 19.8866 79.5388 20.0194 79.2869 20.285C79.035 20.5505 79.035 20.8161 79.035 21.3473V22.2769C79.035 22.6752 79.1609 23.0736 79.2869 23.3392C79.5388 23.6048 79.7907 23.7376 80.1685 23.7376C80.5464 23.7376 80.7982 23.6048 81.0501 23.3392Z" fill="white"/>
<path d="M84.1989 16.6997H84.8286C84.9545 16.6997 85.0805 16.8325 85.0805 16.9653V17.6293C85.0805 17.7621 84.9545 17.8948 84.8286 17.8948H84.1989C84.0729 17.8948 83.947 17.7621 83.947 17.6293V16.9653C83.947 16.8325 84.0729 16.6997 84.1989 16.6997ZM84.1989 18.9572H84.8286C84.9545 18.9572 85.0805 19.09 85.0805 19.2228V24.5345C85.0805 24.6673 84.9545 24.8001 84.8286 24.8001H84.1989C84.0729 24.8001 83.947 24.6673 83.947 24.5345V19.2228C83.947 19.09 84.0729 18.9572 84.1989 18.9572Z" fill="white"/>
<path d="M86.8438 18.957H87.4735C87.5995 18.957 87.7254 19.0898 87.7254 19.2226V24.5343C87.7254 24.6671 87.5995 24.7999 87.4735 24.7999H86.8438C86.7178 24.7999 86.5919 24.6671 86.5919 24.5343V19.2226C86.5919 19.0898 86.7178 18.957 86.8438 18.957ZM89.8665 21.2145C89.8665 20.8161 89.7405 20.5505 89.6146 20.2849C89.3627 20.0194 89.1108 20.0194 88.733 20.0194C88.3551 20.0194 88.1032 20.1522 87.9773 20.2849C87.8513 20.4177 87.5994 20.2849 87.5994 20.1521V20.0194V19.8866C87.7254 19.621 87.9773 19.3554 88.2292 19.0898C88.4811 18.957 88.8589 18.8242 89.1108 18.8242C89.7405 18.8242 90.1184 19.0898 90.4962 19.4882C90.8741 19.8866 91 20.4177 91 21.2145V24.4015C91 24.5343 90.8741 24.6671 90.7481 24.6671H90.1184C89.9924 24.6671 89.8665 24.5343 89.8665 24.4015V21.2145V21.2145Z" fill="white"/>
<path d="M13.6968 30.2444L10.8 29.7133C10.8 29.7133 10.674 29.7132 10.8 29.846L15.3341 34.7594C15.46 34.8922 15.586 34.8922 15.586 34.7594L30.6996 18.0275C30.8256 17.8947 30.8256 17.8947 30.6996 17.7619L15.9638 1.02999C15.7119 0.631606 15.2081 0.631606 14.8303 1.02999L0.0944604 17.7619C-0.0314868 17.8947 -0.0314868 17.8947 0.0944604 18.0275L4.25072 22.5424C4.25072 22.5424 4.25071 22.5424 4.37666 22.5424L11.0519 25.4639C11.1778 25.5967 11.1778 25.7295 10.9259 25.7295L6.01398 24.2687C6.01398 24.2687 5.88803 24.2687 6.01398 24.4015L9.66645 28.3853C9.66645 28.3853 9.66644 28.3853 9.79239 28.3853L13.6968 30.2444C13.6968 30.2444 13.8227 30.1116 13.6968 30.2444ZM20.8757 8.99756L15.46 10.9895C15.3341 10.9895 15.3341 11.1222 15.3341 11.1222V15.106C15.3341 15.2388 15.46 15.3716 15.586 15.2388L23.3947 14.0437C23.5206 14.0437 23.5206 14.1765 23.3947 14.1765L15.46 16.9651C15.3341 16.9651 15.3341 17.0979 15.3341 17.0979V21.6129C15.3341 21.7457 15.46 21.8785 15.586 21.7457L29.818 17.8947C29.9439 17.8947 29.9439 18.0275 29.9439 18.0275L15.7119 33.0331C15.586 33.1659 15.3341 33.0331 15.3341 32.9003V30.9084C15.3341 30.7756 15.3341 30.7756 15.46 30.7756L17.4752 29.4477C17.6011 29.4477 17.4752 29.3149 17.4752 29.3149L15.586 30.1116C15.46 30.1116 15.3341 30.1116 15.3341 29.9788V27.7214C15.3341 27.5886 15.3341 27.5886 15.46 27.5886L18.8606 25.9951C18.9865 25.9951 18.8606 25.7295 18.7346 25.7295L15.586 26.659C15.46 26.659 15.3341 26.659 15.3341 26.5262V24.1359C15.3341 24.0032 15.3341 24.0032 15.46 24.0032L19.8682 22.1441C19.9941 22.1441 19.9941 21.8785 19.7422 21.8785L15.3341 22.9408H15.2081L1.10204 18.1603C0.976089 18.1603 0.976091 17.8947 0.976091 17.8947L14.7043 3.81863C14.9562 3.55305 15.3341 3.81863 15.3341 4.08422V9.39594C15.3341 9.52873 15.46 9.66152 15.586 9.52873L20.8757 8.86476C21.0017 8.86476 21.0017 8.99756 20.8757 8.99756Z" fill="white"/>
<path d="M3.99884 37.4155C3.99884 37.1499 4.25074 36.8843 4.50263 36.8843H26.1655C26.4174 36.8843 26.6693 37.1499 26.6693 37.4155C26.6693 37.681 26.4174 37.9466 26.1655 37.9466H4.50263C4.25074 37.9466 3.99884 37.8138 3.99884 37.4155Z" fill="white"/>
</svg>
